<?xml version="1.0" encoding="UTF-8"?>
<svg xmlns="http://www.w3.org/2000/svg" id="Layer_1" data-name="Layer 1" viewBox="0 0 24 24">
  <path d="M9,9.792c0,.437-.534,1.208-1.5,1.208s-1.5-.771-1.5-1.208,.534-.792,1.5-.792,1.5,.354,1.5,.792Zm7.5,10.208c.966,0,1.5-.771,1.5-1.208s-.534-.792-1.5-.792-1.5,.354-1.5,.792,.534,1.208,1.5,1.208ZM7.851,15h-.701c-3.456,0-7.149-1.289-7.149-4.907,0-.72,.467-1.617,1.183-2.358-.768-.36-1.183-1.078-1.183-2.101C0,4.043,2.454,0,4,0c.938,0,1.411,.462,1.827,.871,.103,.102,.222,.203,.341,.304,.405-.109,.846-.175,1.332-.175,.484,0,.922,.065,1.326,.173,.101-.091,.204-.184,.294-.272,.426-.422,.908-.901,1.88-.901,1.546,0,4,4.043,4,5.633,0,1-.399,1.706-1.134,2.074,.819,.831,1.134,1.761,1.134,2.386,0,3.618-3.693,4.907-7.149,4.907ZM9.845,1.59c2.215,1.236,2.903,4.084,3.08,5.121,.014,.085,.057,.153,.1,.218,.656-.14,.974-.538,.974-1.296,0-1.324-2.291-4.633-3-4.633-.549,0-.784,.223-1.155,.59ZM1,5.633c0,.767,.325,1.166,.997,1.301,.028-.05,.061-.097,.071-.158,.174-1.049,.853-3.928,3.074-5.179-.005-.004-.01-.009-.015-.013-.372-.365-.597-.585-1.127-.585-.709,0-3,3.309-3,4.633Zm13,4.459c0-.553-.42-1.451-1.343-2.117-.008-.006-.013-.012-.021-.018-.135-.045-.244-.145-.3-.277-.207-.234-.346-.503-.397-.8-.251-1.467-1.187-4.88-4.44-4.88-3.273,0-4.199,3.455-4.446,4.94-.056,.341-.232,.647-.501,.902-.008,.008-.017,.016-.026,.023-.044,.04-.084,.083-.133,.12-.961,.732-1.394,1.673-1.394,2.107,0,3.625,4.707,3.907,6.149,3.907h.701c1.442,0,6.149-.282,6.149-3.907Zm9.176-.95c-.073-.467-.375-.858-.809-1.046-.438-.189-.932-.141-1.324,.128-.033,.022-.063,.049-.089,.078l-1.666,1.852c-.525-.224-1.076-.384-1.643-.476-.28-.044-.53,.141-.574,.414-.044,.273,.141,.529,.414,.574,.595,.096,1.17,.279,1.707,.544,.199,.099,.443,.053,.593-.114l1.864-2.072c.139-.073,.269-.033,.321-.011,.056,.024,.189,.101,.218,.282,.254,1.644,.812,5.957,.812,8.062,0,3.111-2.531,5.643-5.643,5.643h-1.857c-3.033,0-5.5-2.468-5.5-5.5,0-.276-.224-.5-.5-.5s-.5,.224-.5,.5c0,3.584,2.916,6.5,6.5,6.5h1.857c3.663,0,6.643-2.979,6.643-6.643,0-2.162-.566-6.546-.824-8.215ZM6.5,7c0-.552-.448-1-1-1s-1,.448-1,1,.448,1,1,1,1-.448,1-1Zm3-1c-.552,0-1,.448-1,1s.448,1,1,1,1-.448,1-1-.448-1-1-1Zm4.5,9c-.552,0-1,.448-1,1s.448,1,1,1,1-.448,1-1-.448-1-1-1Zm6,1c0-.552-.448-1-1-1s-1,.448-1,1,.448,1,1,1,1-.448,1-1Z"/>
</svg>
